<?xml version="1.0" encoding="utf-8"?>
<!-- Generator: Adobe Illustrator 26.0.0, SVG Export Plug-In . SVG Version: 6.00 Build 0)  -->
<svg version="1.1" id="Layer_1" xmlns="http://www.w3.org/2000/svg" xmlns:xlink="http://www.w3.org/1999/xlink" x="0px" y="0px"
	 viewBox="0 0 16 16" style="enable-background:new 0 0 16 16;" xml:space="preserve">
<style type="text/css">
	.st0{fill-rule:evenodd;clip-rule:evenodd;fill:#DC4C64;}
</style>
<path class="st0" d="M1,8c0,3.9,3.1,7,7,7s7-3.1,7-7s-3.1-7-7-7S1,4.1,1,8z M16,8c0,4.4-3.6,8-8,8s-8-3.6-8-8s3.6-8,8-8S16,3.6,16,8
	z M10.1,10.8c0.2,0.2,0.5,0.2,0.7,0s0.2-0.5,0-0.7l0,0L6.7,6h2.8C9.8,6,10,5.8,10,5.5S9.8,5,9.5,5h-4C5.2,5,5,5.2,5,5.5v4
	C5,9.8,5.2,10,5.5,10S6,9.8,6,9.5V6.7L10.1,10.8z"/>
</svg>
